<svg xmlns="http://www.w3.org/2000/svg" width="1200" height="630" viewBox="0 0 1200 630">
  <defs>
    <linearGradient id="bg" x1="0" y1="0" x2="1" y2="1">
      <stop offset="0" stop-color="#060c1d" />
      <stop offset="1" stop-color="#0b1834" />
    </linearGradient>
    <radialGradient id="glow" cx="0.75" cy="0.2" r="0.7">
      <stop offset="0" stop-color="#2563eb" stop-opacity="0.45" />
      <stop offset="1" stop-color="#2563eb" stop-opacity="0" />
    </radialGradient>
    <linearGradient id="accent" x1="0" y1="0" x2="1" y2="0">
      <stop offset="0" stop-color="#60a5fa" />
      <stop offset="1" stop-color="#22d3ee" />
    </linearGradient>
  </defs>
  <rect width="1200" height="630" fill="url(#bg)" />
  <rect width="1200" height="630" fill="url(#glow)" />
  <g stroke="#1e3a5f" stroke-width="1" opacity="0.5">
    <path d="M0 120h1200M0 240h1200M0 360h1200M0 480h1200" />
    <path d="M150 0v630M300 0v630M450 0v630M600 0v630M750 0v630M900 0v630M1050 0v630" />
  </g>
  <rect x="90" y="205" width="10" height="170" rx="5" fill="url(#accent)" />
  <text x="130" y="270" fill="#f8fafc" font-family="Segoe UI, Arial, sans-serif" font-size="66" font-weight="700">
    TAKWA LAFFET
  </text>
  <text x="130" y="325" fill="#93c5fd" font-family="Segoe UI, Arial, sans-serif" font-size="32" font-weight="500">
    Cybersecurity Engineer
  </text>
  <text x="130" y="368" fill="#cbd5e1" font-family="Segoe UI, Arial, sans-serif" font-size="24">
    Full-Stack Developer &#183; DevOps / DevSecOps Engineer
  </text>
  <text x="90" y="545" fill="#7dd3fc" font-family="Consolas, monospace" font-size="22">
    Tunisia &#183; Available immediately
  </text>
</svg>