<svg xmlns="http://www.w3.org/2000/svg" viewBox="0 0 200 200" role="img" aria-label="Profile illustration placeholder">
  <defs>
    <linearGradient id="bg" x1="0" y1="0" x2="1" y2="1">
      <stop offset="0" stop-color="#3b82f6" stop-opacity="0.35" />
      <stop offset="1" stop-color="#0ea5e9" stop-opacity="0.08" />
    </linearGradient>
    <linearGradient id="mark" x1="0" y1="0" x2="1" y2="1">
      <stop offset="0" stop-color="#60a5fa" />
      <stop offset="1" stop-color="#22d3ee" />
    </linearGradient>
  </defs>

  <rect width="200" height="200" rx="28" fill="#0b1428" />
  <rect x="1" y="1" width="198" height="198" rx="27" fill="url(#bg)" />

  <g stroke="url(#mark)" fill="none" stroke-width="2" opacity="0.5">
    <path d="M100 26l52 20v42c0 32-21 58-52 68-31-10-52-36-52-68V46z" />
  </g>
  <g stroke="url(#mark)" fill="none" stroke-width="1.5" opacity="0.32">
    <path d="M100 46l36 14v30c0 22-15 40-36 47-21-7-36-25-36-47V60z" />
  </g>

  <text
    x="100"
    y="118"
    text-anchor="middle"
    font-family="Segoe UI, Arial, sans-serif"
    font-size="58"
    font-weight="700"
    fill="url(#mark)"
    letter-spacing="2"
  >TL</text>

  <g stroke="#38bdf8" stroke-width="2" stroke-linecap="round" opacity="0.65">
    <path d="M28 62h18M28 100h26M28 138h18" />
    <path d="M172 62h-18M172 100h-26M172 138h-18" />
  </g>
</svg>
